<svg xmlns:xlink="http://www.w3.org/1999/xlink" aria-hidden="true" xmlns="http://www.w3.org/2000/svg" viewBox="0 0 40 21" class="tcl-badge-speedometer__outer-circle" fill="var(--tds-theme-foreground-high-contrast)" width="40"  height="21" >
      <path d="M 39.999999,19.798617 A 19.824417,19.633985 0 0 0 34.877782,6.6213841 L 34.16909,5.8402141 C 26.397915,-1.9017959 13.745528,-1.9531229 5.9107311,5.7258771 A 19.91037,19.719113 0 0 0 1.8907042e-4,19.833252 V 21 H 3.9064221 V 19.833252 H 2.3727481 A 17.490621,17.322608 0 0 1 6.8692771,8.2425621 l 1.181013,1.060755 0.778213,-0.874643 -1.18017,-1.038221 A 17.570675,17.401893 0 0 1 19.4513,2.4230131 v 2.227086 h 1.180592 v -2.273822 a 17.589214,17.420254 0 0 1 11.802124,5.002908 l -1.179328,0.991068 0.778213,0.874643 1.180171,-1.014019 a 17.484722,17.316765 0 0 1 4.461979,11.5447899 h -1.582128 v 1.165911 h 3.907076 z" fill="#FFFFFF"></path>
    </svg>